<?xml version="1.0" standalone="no"?>
<!DOCTYPE svg PUBLIC "-//W3C//DTD SVG 20010904//EN"
 "http://www.w3.org/TR/2001/REC-SVG-20010904/DTD/svg10.dtd">
<svg version="1.0" xmlns="http://www.w3.org/2000/svg"
 width="200.000000pt" height="200.000000pt" viewBox="0 0 200.000000 200.000000"
 preserveAspectRatio="xMidYMid meet">
<metadata>
Created by potrace 1.11, written by Peter Selinger 2001-2013
</metadata>
<g transform="translate(0.000000,200.000000) scale(0.100000,-0.100000)"
fill="#000000" stroke="none">
<path d="M915 1827 c-66 -31 -166 -172 -190 -269 -8 -33 -9 -33 -89 -12 -33 9
-99 17 -146 17 -152 1 -230 -60 -238 -187 -2 -34 0 -78 6 -97 7 -27 6 -40 -4
-54 -8 -10 -14 -41 -14 -68 0 -42 5 -54 34 -83 27 -27 42 -34 73 -34 34 0 44
-6 72 -40 l32 -40 -48 -59 c-141 -174 -187 -333 -130 -442 18 -34 36 -51 81
-74 51 -25 68 -29 139 -28 45 0 110 8 143 17 34 9 66 16 71 16 4 0 17 -24 27
-53 44 -125 140 -239 212 -253 65 -12 132 1 172 33 56 45 109 120 139 198 15
39 28 72 29 74 2 2 36 -5 76 -15 40 -9 108 -18 150 -18 103 0 180 37 215 103
25 47 31 129 14 187 -6 21 -5 36 5 49 8 10 14 41 14 68 0 42 -5 54 -34 83 -27
27 -42 34 -73 34 -34 0 -44 6 -72 40 l-32 40 45 55 c187 229 209 432 56 518
-48 28 -63 31 -134 31 -45 0 -114 -8 -154 -18 -40 -10 -74 -17 -76 -15 -1 2
-14 36 -29 74 -30 78 -83 153 -140 199 -33 26 -48 31 -105 33 -42 2 -78 -2
-97 -10z m165 -114 c36 -32 120 -179 120 -209 0 -5 -45 -31 -100 -58 l-101
-49 -99 49 c-55 26 -100 53 -100 58 0 5 18 46 40 91 50 104 103 155 160 155
32 0 48 -7 80 -37z m-449 -260 l56 -15 -9 -41 c-5 -23 -16 -89 -24 -147 l-14
-105 -62 -57 -63 -57 -21 24 c-19 20 -21 32 -17 89 6 64 5 66 -30 101 -24 24
-44 35 -65 35 -35 0 -42 13 -42 76 0 54 37 101 90 114 43 11 126 4 201 -17z
m934 17 c60 -14 95 -58 95 -120 0 -58 -50 -162 -124 -259 l-47 -61 -64 55
c-67 59 -69 63 -80 170 -4 33 -12 88 -19 122 l-13 62 61 15 c104 27 135 29
191 16z m-724 -96 c33 -15 59 -29 59 -33 -1 -5 -134 -102 -152 -109 -4 -2 -5
11 -2 30 16 93 26 138 31 138 3 0 32 -12 64 -26z m398 -26 c19 -102 21 -120
13 -116 -18 7 -151 104 -152 109 0 6 108 58 122 59 4 0 11 -24 17 -52z m-144
-121 c33 -22 86 -60 118 -84 l57 -44 0 -138 0 -138 -42 -33 c-74 -60 -211
-150 -228 -150 -16 0 -156 91 -231 151 l-39 31 0 139 0 139 73 53 c39 30 99
72 132 94 67 46 60 47 160 -20z m-455 -268 l0 -50 -30 21 c-36 26 -36 27 -8
57 31 34 38 29 38 -28z m780 1 c0 -5 -13 -18 -30 -30 l-30 -21 0 51 0 51 30
-21 c17 -12 30 -25 30 -30z m-776 -208 c2 -15 8 -54 11 -87 4 -33 12 -88 19
-121 l13 -62 -36 -10 c-139 -41 -228 -36 -278 14 -28 27 -33 39 -33 80 0 62
42 153 116 252 l55 73 64 -56 c40 -35 66 -66 69 -83z m879 24 c-6 -64 -5 -66
30 -101 24 -24 44 -35 65 -35 35 0 42 -13 42 -77 0 -37 -5 -50 -32 -77 -51
-51 -140 -55 -279 -14 l-36 10 9 42 c5 22 16 88 23 146 l14 105 63 57 63 58
21 -24 c19 -21 21 -33 17 -90z m-695 -141 c39 -27 72 -53 72 -56 0 -6 -111
-59 -123 -59 -5 0 -15 45 -31 138 -7 40 -10 40 82 -23z m426 23 c-16 -92 -26
-138 -31 -138 -12 0 -123 53 -123 59 1 7 141 109 152 110 4 1 5 -14 2 -31z
m-149 -185 c52 -26 95 -52 95 -57 0 -30 -84 -177 -120 -209 -84 -76 -166 -36
-240 118 -22 45 -40 86 -40 91 0 10 176 102 197 103 7 1 56 -20 108 -46z"/>
<path d="M914 1046 c-30 -30 -34 -40 -34 -86 0 -75 45 -120 120 -120 46 0 56
4 86 34 30 30 34 40 34 86 0 46 -4 56 -34 86 -30 30 -40 34 -86 34 -46 0 -56
-4 -86 -34z"/>
</g>
</svg>
